<svg xmlns:dc="http://purl.org/dc/elements/1.1/" xmlns:cc="http://creativecommons.org/ns#" xmlns:rdf="http://www.w3.org/1999/02/22-rdf-syntax-ns#" xmlns:svg="http://www.w3.org/2000/svg" xmlns="http://www.w3.org/2000/svg" xmlns:sodipodi="http://sodipodi.sourceforge.net/DTD/sodipodi-0.dtd" xmlns:inkscape="http://www.inkscape.org/namespaces/inkscape" version="1.1" x="0px" y="0px" viewBox="20 0 70 70"><g transform="translate(0,-952.36218)"><path style="text-indent:0;text-transform:none;direction:ltr;block-progression:tb;baseline-shift:baseline;color:#000000;enable-background:accumulate;" d="m 77.000005,1002.3613 c -0.0375,-0.4256 -0.21559,-0.9938 -0.49998,-1.3125 l -15,-17.00003 c -0.65432,-0.88832 -2.00339,-0.88538 -2.8337,-0.15886 -0.83031,0.72652 -0.89361,2.01741 -0.16631,2.78386 l 12.09376,13.68753 -45.59378,0 c -1.1045,0 -2,0.8954 -2,2 0,1.1046 0.8955,2 2,2 l 45.59378,0 -12.09375,13.6875 c -0.7936,0.7664 -0.57042,2.0808 0.2599,2.8073 0.83031,0.7265 2.08579,0.6747 2.74011,-0.1823 l 15,-17 c 0.40091,-0.4343 0.4774,-0.9056 0.49997,-1.3125 z" fill="#000000" fill-opacity="1" stroke="none" marker="none" visibility="visible" display="inline" overflow="visible"/></g></svg>